<svg width="1147" height="318" viewBox="0 0 1147 318" fill="none" xmlns="http://www.w3.org/2000/svg">
<path d="M233.635 223.78V58.8908H294.573C307.749 58.8908 318.65 61.0891 327.277 65.4864C335.904 69.8836 342.335 75.9291 346.57 83.6241C350.805 91.3191 352.923 99.9558 352.923 109.535C352.923 118.644 350.883 127.045 346.805 134.74C342.727 142.277 336.375 148.402 327.748 153.113C319.12 157.667 308.062 159.944 294.573 159.944H263.751V223.78H233.635ZM263.751 135.446H292.691C303.2 135.446 310.729 133.169 315.278 128.615C319.983 123.904 322.336 117.544 322.336 109.535C322.336 101.369 319.983 95.0091 315.278 90.4552C310.729 85.7441 303.2 83.3886 292.691 83.3886H263.751V135.446ZM387.373 88.8064C381.883 88.8064 377.334 87.1575 373.727 83.8597C370.276 80.5619 368.551 76.4002 368.551 71.3752C368.551 66.3503 370.276 62.2669 373.727 59.1264C377.334 55.8286 381.883 54.1797 387.373 54.1797C392.863 54.1797 397.333 55.8286 400.784 59.1264C404.392 62.2669 406.196 66.3503 406.196 71.3752C406.196 76.4002 404.392 80.5619 400.784 83.8597C397.333 87.1575 392.863 88.8064 387.373 88.8064ZM372.315 223.78V106.944H402.431V223.78H372.315ZM429.159 275.602V106.944H455.982L459.276 123.669C463.04 118.486 467.981 113.932 474.098 110.006C480.373 106.08 488.451 104.117 498.332 104.117C509.312 104.117 519.116 106.787 527.743 112.126C536.37 117.466 543.193 124.768 548.212 134.033C553.232 143.298 555.741 153.82 555.741 165.597C555.741 177.375 553.232 187.897 548.212 197.162C543.193 206.27 536.37 213.494 527.743 218.833C519.116 224.015 509.312 226.606 498.332 226.606C489.549 226.606 481.863 224.957 475.275 221.66C468.687 218.362 463.354 213.729 459.276 207.762V275.602H429.159ZM491.98 200.224C501.548 200.224 509.469 197.005 515.743 190.566C522.018 184.128 525.154 175.805 525.154 165.597C525.154 155.39 522.018 146.989 515.743 140.393C509.469 133.797 501.548 130.5 491.98 130.5C482.255 130.5 474.255 133.797 467.981 140.393C461.864 146.831 458.805 155.155 458.805 165.362C458.805 175.569 461.864 183.971 467.981 190.566C474.255 197.005 482.255 200.224 491.98 200.224ZM634.644 226.606C622.879 226.606 612.445 224.094 603.351 219.069C594.252 214.044 587.115 206.977 581.939 197.869C576.762 188.76 574.174 178.239 574.174 166.304C574.174 154.212 576.684 143.455 581.703 134.033C586.88 124.611 593.94 117.309 602.881 112.126C611.974 106.787 622.644 104.117 634.879 104.117C646.325 104.117 656.442 106.63 665.23 111.655C674.012 116.68 680.835 123.59 685.7 132.384C690.717 141.021 693.229 150.679 693.229 161.357C693.229 163.085 693.146 164.891 692.994 166.775C692.994 168.66 692.911 170.622 692.758 172.664H604.057C604.68 181.772 607.821 188.917 613.468 194.1C619.268 199.282 626.25 201.873 634.408 201.873C640.526 201.873 645.62 200.538 649.702 197.869C653.937 195.042 657.072 191.43 659.113 187.033H689.7C687.5 194.414 683.818 201.166 678.641 207.291C673.618 213.258 667.348 217.969 659.819 221.424C652.443 224.879 644.055 226.606 634.644 226.606ZM634.879 128.615C627.503 128.615 620.997 130.735 615.35 134.975C609.704 139.058 606.092 145.34 604.527 153.82H662.642C662.172 146.125 659.348 140 654.172 135.446C648.996 130.892 642.561 128.615 634.879 128.615ZM783.024 226.606C774.242 226.606 766.554 224.957 759.967 221.66C753.379 218.362 748.044 213.729 743.967 207.762L740.673 223.78H713.851V54.1797H743.967V123.669C747.732 118.486 752.673 113.932 758.79 110.006C765.066 106.08 773.142 104.117 783.024 104.117C794.006 104.117 803.806 106.787 812.434 112.126C821.063 117.466 827.887 124.768 832.904 134.033C837.921 143.298 840.433 153.82 840.433 165.597C840.433 177.375 837.921 187.897 832.904 197.162C827.887 206.27 821.063 213.494 812.434 218.833C803.806 224.015 794.006 226.606 783.024 226.606ZM776.672 200.224C786.242 200.224 794.159 197.005 800.435 190.566C806.711 184.128 809.846 175.805 809.846 165.597C809.846 155.39 806.711 146.989 800.435 140.393C794.159 133.797 786.242 130.5 776.672 130.5C766.949 130.5 758.949 133.797 752.673 140.393C746.555 146.831 743.497 155.155 743.497 165.362C743.497 175.569 746.555 183.971 752.673 190.566C758.949 197.005 766.949 200.224 776.672 200.224ZM878.866 88.8064C873.372 88.8064 868.826 87.1575 865.22 83.8597C861.767 80.5619 860.044 76.4002 860.044 71.3752C860.044 66.3503 861.767 62.2669 865.22 59.1264C868.826 55.8286 873.372 54.1797 878.866 54.1797C884.354 54.1797 888.825 55.8286 892.277 59.1264C895.883 62.2669 897.689 66.3503 897.689 71.3752C897.689 76.4002 895.883 80.5619 892.277 83.8597C888.825 87.1575 884.354 88.8064 878.866 88.8064ZM863.808 223.78V106.944H893.924V223.78H863.808ZM920.652 223.78V106.944H947.475L950.298 128.851C954.533 121.313 960.256 115.346 967.474 110.949C974.844 106.395 983.473 104.117 993.355 104.117V135.917H984.884C978.297 135.917 972.414 136.938 967.238 138.98C962.062 141.021 957.98 144.555 955.004 149.58C952.18 154.605 950.769 161.593 950.769 170.544V223.78H920.652ZM1060.81 226.606C1049.83 226.606 1040.02 223.937 1031.4 218.597C1022.77 213.258 1015.95 205.956 1010.93 196.691C1005.91 187.426 1003.4 176.904 1003.4 165.126C1003.4 153.349 1005.91 142.906 1010.93 133.797C1015.95 124.532 1022.77 117.309 1031.4 112.126C1040.02 106.787 1049.83 104.117 1060.81 104.117C1069.59 104.117 1077.28 105.766 1083.87 109.064C1090.46 112.362 1095.78 116.995 1099.87 122.962V54.1797H1129.98V223.78H1103.16L1099.87 207.055C1096.1 212.237 1091.08 216.791 1084.81 220.717C1078.69 224.644 1070.69 226.606 1060.81 226.606ZM1067.16 200.224C1076.89 200.224 1084.81 197.005 1090.93 190.566C1097.2 183.971 1100.34 175.569 1100.34 165.362C1100.34 155.155 1097.2 146.831 1090.93 140.393C1084.81 133.797 1076.89 130.5 1067.16 130.5C1057.59 130.5 1049.67 133.719 1043.4 140.157C1037.12 146.596 1033.99 154.919 1033.99 165.126C1033.99 175.334 1037.12 183.735 1043.4 190.331C1049.67 196.926 1057.59 200.224 1067.16 200.224Z" fill="black"/>
<path d="M73.5229 275.015C35.5853 275.015 4.83105 244.225 4.83105 206.243V4.83984H142.215V206.243C142.216 244.225 111.461 275.015 73.5229 275.015Z" fill="#BCBCEF"/>
<path d="M44.0854 88.3448L73.5249 68.6953L93.1516 83.4323V93.2573L73.5249 107.994C73.5237 107.994 42.1683 87.359 44.0854 88.3448Z" fill="#F9B233"/>
<path d="M39.1773 88.3463C58.1462 88.3463 73.5235 72.9516 73.5235 53.9604C73.5235 34.9694 58.1462 19.5742 39.1773 19.5742C20.2084 19.5742 4.83105 34.9694 4.83105 53.9604C4.83105 72.9516 20.2084 88.3463 39.1773 88.3463Z" fill="#746DFF"/>
<path d="M107.872 88.3463C126.84 88.3463 142.218 72.9516 142.218 53.9604C142.218 34.9694 126.84 19.5742 107.872 19.5742C88.9028 19.5742 73.5254 34.9694 73.5254 53.9604C73.5254 72.9516 88.9028 88.3463 107.872 88.3463Z" fill="#746DFF"/>
<path d="M39.1801 73.6111C50.0195 73.6111 58.8066 64.8136 58.8066 53.9617C58.8066 43.1098 50.0195 34.3125 39.1801 34.3125C28.3407 34.3125 19.5537 43.1098 19.5537 53.9617C19.5537 64.8136 28.3407 73.6111 39.1801 73.6111Z" fill="white"/>
<path d="M107.868 73.6111C118.708 73.6111 127.495 64.8136 127.495 53.9617C127.495 43.1098 118.708 34.3125 107.868 34.3125C97.0288 34.3125 88.2422 43.1098 88.2422 53.9617C88.2422 64.8136 97.0288 73.6111 107.868 73.6111Z" fill="white"/>
<path d="M39.1773 235.717C20.2082 235.717 4.83105 220.322 4.83105 201.331V112.91C23.7996 112.91 39.1773 128.305 39.1773 147.297V235.717Z" fill="#746DFF"/>
<path d="M107.876 235.717C126.846 235.717 142.222 220.322 142.222 201.331V112.91C123.253 112.91 107.876 128.305 107.876 147.297V235.717Z" fill="#746DFF"/>
<path d="M73.5224 279.925C95.2013 279.925 112.775 262.331 112.775 240.626C112.775 218.922 95.2013 201.328 73.5224 201.328C51.8436 201.328 34.2695 218.922 34.2695 240.626C34.2695 262.331 51.8436 279.925 73.5224 279.925Z" fill="#746DFF"/>
<path d="M39.1816 78.4517C25.6946 78.4517 14.7227 67.4665 14.7227 53.9639C14.7227 40.4612 25.6952 29.4766 39.1816 29.4766C52.6686 29.4766 63.6411 40.4619 63.6411 53.9639C63.6417 67.4665 52.6693 78.4517 39.1816 78.4517ZM39.1816 39.1541C31.0245 39.1541 24.3889 45.798 24.3889 53.9639C24.3889 62.1306 31.0252 68.7745 39.1816 68.7745C47.3386 68.7745 53.9749 62.1306 53.9749 53.9639C53.9755 45.7974 47.3399 39.1541 39.1816 39.1541Z" fill="#1D1D1B"/>
<path d="M107.87 78.4483C94.3835 78.4483 83.4111 67.4626 83.4111 53.96C83.4111 40.4573 94.3835 29.4727 107.87 29.4727C121.357 29.4727 132.329 40.458 132.329 53.96C132.331 67.4626 121.358 78.4483 107.87 78.4483ZM107.87 39.1502C99.7132 39.1502 93.0771 45.7941 93.0771 53.96C93.0771 62.1267 99.7132 68.7705 107.87 68.7705C116.028 68.7705 122.663 62.1267 122.663 53.96C122.664 45.7935 116.028 39.1502 107.87 39.1502Z" fill="#1D1D1B"/>
<path d="M58.7278 132.562H49.0615V142.387H58.7278V132.562Z" fill="#1D1D1B"/>
<path d="M78.3609 137.469H68.6943V157.118H78.3609V137.469Z" fill="#1D1D1B"/>
<path d="M97.9888 132.559H88.3223V142.383H97.9888V132.559Z" fill="#1D1D1B"/>
<path d="M0 0V108.07V201.33V211.154C0 243.161 20.5125 270.458 49.0661 280.572V304.562H34.2728V314.239H58.7323V283.267C63.512 284.249 68.46 284.764 73.5256 284.764C78.5954 284.764 83.5469 284.248 88.3314 283.265V304.561H73.538V314.238H97.9973V280.567C126.544 270.45 147.051 243.157 147.051 211.154V201.422V108.07V0H0ZM78.3583 53.9612C78.3583 37.6688 91.5977 24.4145 107.872 24.4145C124.145 24.4145 137.384 37.6688 137.384 53.9612C137.384 70.2539 124.145 83.5086 107.872 83.5086C91.5977 83.5086 78.3583 70.2539 78.3583 53.9612ZM89.8142 88.7538L73.5256 101.8L57.2373 88.7538C64.1085 85.1645 69.7929 79.6013 73.5256 72.812C77.2584 79.6013 82.9428 85.1645 89.8142 88.7538ZM39.1788 83.5086C22.9052 83.5086 9.66627 70.2539 9.66627 53.9612C9.66627 37.6688 22.9052 24.4145 39.1788 24.4145C55.4523 24.4145 68.6918 37.6688 68.6918 53.9612C68.6918 70.2539 55.4529 83.5086 39.1788 83.5086ZM9.66627 118.13C23.6424 120.407 34.3456 132.577 34.3456 147.203V230.481C20.3637 228.165 9.66627 215.974 9.66627 201.33V118.13ZM137.384 118.144V201.422C137.384 216.047 126.681 228.218 112.705 230.495V147.295C112.704 132.65 123.403 120.46 137.384 118.144ZM137.384 108.07H93.1523V117.748H116.493C108.257 124.944 103.039 135.517 103.039 147.295V240.554H107.963C118.211 240.554 127.544 236.581 134.523 230.098C126.439 256.131 102.152 275.087 73.5256 275.087C44.8722 275.087 20.5673 256.094 12.5069 230.024C19.5066 236.551 28.8829 240.554 39.1794 240.554H44.0125V147.203C44.0125 135.465 38.8172 124.926 30.6164 117.748H53.8992V108.07H9.66627V79.7161C16.8541 87.9617 27.4155 93.1864 39.1788 93.1864C41.6604 93.1864 44.0853 92.9437 46.4401 92.4997L73.5251 114.193L100.61 92.4997C102.965 92.9437 105.389 93.1864 107.872 93.1864C119.635 93.1864 130.196 87.9617 137.384 79.7161L137.384 108.07ZM107.872 14.7369C93.0882 14.7369 80.1953 22.9783 73.5251 35.1107C66.8548 22.9783 53.9617 14.7369 39.1788 14.7369C27.4149 14.7369 16.8535 19.9615 9.66627 28.2068V9.67751H137.384V28.2068C130.197 19.9615 119.636 14.7369 107.872 14.7369Z" fill="#1D1D1B"/>
<path d="M74.1697 304.559H57.5166V314.236H74.1697V304.559Z" fill="#1D1D1B"/>
<path d="M112.792 304.559H97.4277V314.236H112.792V304.559Z" fill="#1D1D1B"/>
<path d="M41.1743 70.6649C47.6714 70.6649 52.9384 65.3918 52.9384 58.8872C52.9384 52.3825 47.6714 47.1094 41.1743 47.1094C34.6771 47.1094 29.4102 52.3825 29.4102 58.8872C29.4102 65.3918 34.6771 70.6649 41.1743 70.6649Z" fill="#1D1D1B"/>
<path d="M105.877 70.6649C112.375 70.6649 117.641 65.3918 117.641 58.8872C117.641 52.3825 112.375 47.1094 105.877 47.1094C99.3802 47.1094 94.1133 52.3825 94.1133 58.8872C94.1133 65.3918 99.3802 70.6649 105.877 70.6649Z" fill="#1D1D1B"/>
</svg>
