<svg xmlns="http://www.w3.org/2000/svg" viewBox="0 0 230.4 71.24"><g id="ad64687a-0d37-450a-aa3c-e564c988b0f4" data-name="Layer 2"><g id="b183208a-03d0-48de-82a9-6ac38ff1d798" data-name="katman 1"><g id="bd29bb85-a9ec-4e52-949f-bbbdd5a760ad" data-name="Group 1"><path id="a5815d4e-c9aa-4e32-8237-1ae6c76d40f1" data-name="Path 7" d="M58.72,26.24a7.84,7.84,0,0,1,.88-3.8,6.29,6.29,0,0,1,2.45-2.56A7.19,7.19,0,0,1,65.7,19a6.78,6.78,0,0,1,3.55.93,6.33,6.33,0,0,1,2.44,2.61,7.92,7.92,0,0,1,.88,3.82v1.09H62.42a2.9,2.9,0,0,0,1,2.09,3.43,3.43,0,0,0,2.38.8,4,4,0,0,0,1.91-.45,7.19,7.19,0,0,0,1.91-1.56l2.3,2.35a8.79,8.79,0,0,1-2.74,2.06,7.78,7.78,0,0,1-3.39.73,7.37,7.37,0,0,1-3.7-.9A6.32,6.32,0,0,1,59.59,30,7.85,7.85,0,0,1,58.72,26.24Zm10.13-1.5a2.71,2.71,0,0,0-1-1.89,3.54,3.54,0,0,0-4.33,0,3.07,3.07,0,0,0-1.05,1.91Z" style="fill:#f1f5f9"/><path id="ac070ea4-535f-479d-bf55-676f5b02683b" data-name="Path 8" d="M84.13,22.67v5.5a1.37,1.37,0,0,0,.32,1,1.5,1.5,0,0,0,1.08.31h3.12v3.57H85.19A5.26,5.26,0,0,1,81.67,32a3.87,3.87,0,0,1-1.24-3.07V22.67H77.07V19.36h3.36V15.87h3.7v3.49h5.38v3.31Z" style="fill:#f1f5f9"/><path id="bab91583-8a4e-4409-9f52-d7f02fdf1248" data-name="Path 9" d="M94.52,14.19h3.7v6.43h0a5.44,5.44,0,0,1,6.62-.93,4.92,4.92,0,0,1,1.81,2,6.81,6.81,0,0,1,.65,3.05v8.27h-3.7V25.28a3.15,3.15,0,0,0-.7-2.15,2.46,2.46,0,0,0-1.92-.78,2.77,2.77,0,0,0-2.06.77,2.82,2.82,0,0,0-.75,2.1v7.84h-3.7Z" style="fill:#f1f5f9"/><path id="a1d03400-0aef-4243-9c5a-9a1c8aa8c379" data-name="Path 10" d="M111.45,26.24a7.84,7.84,0,0,1,.88-3.8,6.29,6.29,0,0,1,2.45-2.56,7.16,7.16,0,0,1,3.65-.9,6.81,6.81,0,0,1,3.55.93,6.42,6.42,0,0,1,2.45,2.61,8,8,0,0,1,.87,3.82v1.09H115.15a2.9,2.9,0,0,0,1,2.09,3.43,3.43,0,0,0,2.38.8,4,4,0,0,0,1.91-.45,7.19,7.19,0,0,0,1.91-1.56l2.3,2.35a8.56,8.56,0,0,1-2.74,2.06,7.74,7.74,0,0,1-3.38.73,7.35,7.35,0,0,1-3.7-.9A6.28,6.28,0,0,1,112.32,30,7.85,7.85,0,0,1,111.45,26.24Zm10.13-1.5a2.71,2.71,0,0,0-1-1.89,3.54,3.54,0,0,0-4.33,0,3.08,3.08,0,0,0-1.06,1.91Z" style="fill:#f1f5f9"/><path id="a35b88c4-3ec0-4f26-8658-786f863748cf" data-name="Path 11" d="M130.69,19.36h3.54v1.26h.05a5.21,5.21,0,0,1,4-1.65A4.77,4.77,0,0,1,141.34,20a5.48,5.48,0,0,1,1.81,2.85L139.68,24a2.36,2.36,0,0,0-2.45-1.68,2.67,2.67,0,0,0-2.12.81,3.25,3.25,0,0,0-.72,2.24v7.68h-3.7Z" style="fill:#f1f5f9"/><path id="bcdc6260-5a9b-4726-b744-0eca984ff5b4" data-name="Path 12" d="M146.61,26.24a7.84,7.84,0,0,1,.88-3.8,6.29,6.29,0,0,1,2.45-2.56,7.19,7.19,0,0,1,3.65-.9,6.81,6.81,0,0,1,3.55.93,6.42,6.42,0,0,1,2.45,2.61,8,8,0,0,1,.87,3.82v1.09H150.31a2.86,2.86,0,0,0,1,2.09,3.43,3.43,0,0,0,2.38.8,4,4,0,0,0,1.91-.45,7.19,7.19,0,0,0,1.91-1.56l2.3,2.35a8.79,8.79,0,0,1-2.74,2.06,7.74,7.74,0,0,1-3.38.73,7.32,7.32,0,0,1-3.7-.9A6.28,6.28,0,0,1,147.48,30,7.85,7.85,0,0,1,146.61,26.24Zm10.13-1.5a2.71,2.71,0,0,0-1-1.89,3.54,3.54,0,0,0-4.33,0,3.08,3.08,0,0,0-1.06,1.91Z" style="fill:#f1f5f9"/><path id="a07ebeb9-7671-4f8f-a6d0-8adecf27033e" data-name="Path 13" d="M165,28.4v-9h3.7v8.19a2.2,2.2,0,0,0,1.85,2.51,2.29,2.29,0,0,0,.64,0,2.38,2.38,0,0,0,1.77-.68,2.56,2.56,0,0,0,.66-1.83V19.36h3.7V33.05h-3.55V31.84h0A3.9,3.9,0,0,1,172.12,33a5.63,5.63,0,0,1-5.83-.89A5,5,0,0,1,165,28.4Z" style="fill:#f1f5f9"/><path id="baa741d6-1a47-4347-a353-a56c126038d9" data-name="Path 14" d="M181.38,19.36h3.26v1.19h.05a3,3,0,0,1,2.63-1.45,3,3,0,0,1,2.61,1.52H190a3.26,3.26,0,0,1,2.84-1.52,3.09,3.09,0,0,1,2.43,1.06,4,4,0,0,1,.93,2.76V33.06h-3.41V23.57a1.24,1.24,0,0,0-.31-.9,1.18,1.18,0,0,0-.88-.31,1.12,1.12,0,0,0-.86.35,1.36,1.36,0,0,0-.33.94v9.41h-3.23V23.57a1.27,1.27,0,0,0-.3-.89,1.13,1.13,0,0,0-.84-.33,1.26,1.26,0,0,0-.9.35,1.32,1.32,0,0,0-.33.95v9.41h-3.42Z" style="fill:#f1f5f9"/><path id="ff1b2f1f-e1ce-4104-8834-d19559aaf22c" data-name="Path 15" d="M62.86,51.48H59.24V48.17h3.62v-2a3.56,3.56,0,0,1,1.2-2.85,4.86,4.86,0,0,1,3.32-1h4v3.28H67.82a1.15,1.15,0,0,0-.83.28,1.08,1.08,0,0,0-.28.8v1.55h5.48v3.32H66.71v8.86H62.86Z" style="fill:#f1f5f9"/><path id="afbbade2-8273-4012-92a1-e6f83225b5da" data-name="Path 16" d="M76.3,53.49a7.71,7.71,0,0,1,.88-3.76,6.34,6.34,0,0,1,2.47-2.56,7.72,7.72,0,0,1,7.29,0,6.38,6.38,0,0,1,2.46,2.56,8.43,8.43,0,0,1,0,7.52,6.32,6.32,0,0,1-2.46,2.56,7.66,7.66,0,0,1-7.29,0,6.36,6.36,0,0,1-2.48-2.56A7.79,7.79,0,0,1,76.3,53.49Zm10.29,0a4.26,4.26,0,0,0-.87-2.83,3,3,0,0,0-2.45-1,3,3,0,0,0-2.41,1,5,5,0,0,0,0,5.66,3.36,3.36,0,0,0,4.76.07.6.6,0,0,0,.08-.08A4.21,4.21,0,0,0,86.59,53.49Z" style="fill:#f1f5f9"/><path id="b51e7d47-76a8-4f65-8096-35452a52d8b1" data-name="Path 17" d="M94.65,55.69v-9h3.7v8.2a2.19,2.19,0,0,0,2.48,2.5,2.38,2.38,0,0,0,1.77-.68,2.57,2.57,0,0,0,.66-1.83V46.64H107v13.7h-3.55V59.13h0a4,4,0,0,1-1.56,1.16,4.83,4.83,0,0,1-7.15-4.6Z" style="fill:#f1f5f9"/><path id="a38c748f-d6fc-4706-a7ce-1408d38a58b5" data-name="Path 18" d="M112.1,46.64h3.7v1.3h0a6,6,0,0,1,1.78-1.26,5.26,5.26,0,0,1,2.18-.42,5.1,5.1,0,0,1,2.5.63,4.77,4.77,0,0,1,1.89,1.94,6.63,6.63,0,0,1,.72,3.24v8.27h-3.7V52.56a3.2,3.2,0,0,0-.67-2.12,2.41,2.41,0,0,0-1.94-.8,2.81,2.81,0,0,0-2.07.77,2.9,2.9,0,0,0-.75,2.1v7.84h-3.7Z" style="fill:#f1f5f9"/><path id="bc4e7b7b-c5a9-457a-869f-b1cb31635725" data-name="Path 19" d="M128.75,53.49a8.26,8.26,0,0,1,.8-3.72,6.16,6.16,0,0,1,2.24-2.58,6,6,0,0,1,3.29-.94,5.1,5.1,0,0,1,3.64,1.25h.05v-6h3.7V60.34h-3.41V59.15H139a5.27,5.27,0,0,1-4,1.58,5.92,5.92,0,0,1-5.48-3.45A8.39,8.39,0,0,1,128.75,53.49Zm10,.88V52.59a2.75,2.75,0,0,0-.42-1.45,3.09,3.09,0,0,0-1.15-1.09,3.35,3.35,0,0,0-1.64-.41,2.75,2.75,0,0,0-2.29,1,5,5,0,0,0,0,5.6,2.78,2.78,0,0,0,2.25,1.06,3.22,3.22,0,0,0,2.32-.87,2.82,2.82,0,0,0,.92-2.11Z" style="fill:#f1f5f9"/><path id="ee6f985a-fef1-4062-a848-097224f77b1e" data-name="Path 20" d="M147.46,56.67a3.59,3.59,0,0,1,1.31-3,9.43,9.43,0,0,1,4.35-1.55,7.63,7.63,0,0,0,2.19-.58,1,1,0,0,0,.58-.87,1.13,1.13,0,0,0-.57-1,2.8,2.8,0,0,0-1.55-.36,2.9,2.9,0,0,0-1.93.67,3,3,0,0,0-1.05,1.78L147.36,51a5.22,5.22,0,0,1,1.16-2.48,6.12,6.12,0,0,1,2.27-1.7,7.25,7.25,0,0,1,3-.6A5.91,5.91,0,0,1,158,47.72a5.16,5.16,0,0,1,1.58,3.93v8.69h-3.31V58.82h-.05a4,4,0,0,1-1.67,1.41,5.72,5.72,0,0,1-2.41.5,5.49,5.49,0,0,1-2.4-.52,4,4,0,0,1-1.66-1.45A3.77,3.77,0,0,1,147.46,56.67ZM156,55.25V53.7h0a1.62,1.62,0,0,1-.77.62,9.4,9.4,0,0,1-1.71.46,7,7,0,0,0-2,.66,1.11,1.11,0,0,0-.54,1,1,1,0,0,0,.47.9,2.52,2.52,0,0,0,1.39.31,3.68,3.68,0,0,0,1.57-.32,2.9,2.9,0,0,0,1.19-.88,1.79,1.79,0,0,0,.44-1.17Z" style="fill:#f1f5f9"/><path id="a09edc5a-9b0e-4714-b69a-990ec5ec0a41" data-name="Path 21" d="M172,50v5.51a1.38,1.38,0,0,0,.32,1,1.6,1.6,0,0,0,1.08.31h3.12v3.56h-3.46a5.16,5.16,0,0,1-3.51-1.07,3.83,3.83,0,0,1-1.25-3.06V50H165V46.64h3.36V43.15H172v3.49h5.38V50Z" style="fill:#f1f5f9"/><path id="b817a972-88d5-4f8c-87d2-558aa173049a" data-name="Path 22" d="M195.49,57v3.38H182V57h4.89V50h-4.63V46.64h8.32V57Zm-8.66-16.1h3.8V44.5h-3.8Z" style="fill:#f1f5f9"/><path id="ec1f474b-e8db-4b62-8016-66330f964bf8" data-name="Path 23" d="M199.34,53.49a7.94,7.94,0,0,1,.88-3.76,6.41,6.41,0,0,1,2.47-2.56,7.72,7.72,0,0,1,7.29,0,6.34,6.34,0,0,1,2.47,2.56,8.49,8.49,0,0,1,0,7.52A6.34,6.34,0,0,1,210,59.81a7.66,7.66,0,0,1-7.29,0,6.34,6.34,0,0,1-2.47-2.56A7.91,7.91,0,0,1,199.34,53.49Zm10.29,0a4.25,4.25,0,0,0-.86-2.83,3,3,0,0,0-2.45-1,3,3,0,0,0-2.41,1,5,5,0,0,0,0,5.66,3.36,3.36,0,0,0,4.76.07l.08-.08A4.15,4.15,0,0,0,209.63,53.49Z" style="fill:#f1f5f9"/><path id="ad070c53-6d6d-46ee-8320-f54ae21a6932" data-name="Path 24" d="M217.57,46.64h3.7v1.3h.06a5.88,5.88,0,0,1,1.78-1.26,5.25,5.25,0,0,1,2.17-.42,5.11,5.11,0,0,1,2.51.63,4.77,4.77,0,0,1,1.89,1.94,6.63,6.63,0,0,1,.72,3.24v8.27h-3.7V52.56a3.2,3.2,0,0,0-.67-2.12,2.42,2.42,0,0,0-1.94-.8,2.78,2.78,0,0,0-2.07.77,2.9,2.9,0,0,0-.75,2.1v7.84h-3.7Z" style="fill:#f1f5f9"/></g><polygon points="21.37 49.68 21.37 0 0 36.35 21.37 49.68" style="fill:#ffe94d"/><polygon points="21.37 0 42.74 36.35 21.37 49.68 21.37 0" style="fill:#ff9c92"/><polyline points="0 40.66 21.37 53.99 21.37 71.24" style="fill:#53d3e0"/><polyline points="42.74 40.66 21.37 53.99 21.37 71.24" style="fill:#5a9ded"/><polygon points="21.37 24.45 0 36.35 21.37 49.68 21.37 24.45" style="fill:#88d848;opacity:0.75"/><polygon points="21.37 24.45 42.74 36.35 21.37 49.68 21.37 24.45" style="fill:#cc71c3;opacity:0.75"/></g></g></svg>
